<?xml version="1.0" encoding="UTF-8"?>
<svg id="Capa_1" data-name="Capa 1" xmlns="http://www.w3.org/2000/svg" viewBox="0 0 16 16">
  <defs>
    <style>
      .cls-1 {
        fill: #ff4bb3;
      }
    </style>
  </defs>
  <path class="cls-1" d="M9.03,9.09c.26,1.4,2.24,1.46,2.49.03.1-.59.16-1.61.18-2.23.03-1,.09-1.77-1.06-2.02-.67-.15-2.11-.32-2.8-.35-1.99-.1-2.08,2.25-.29,2.53-.16.12-1.24,1.18-1.33,1.12-1.45-2.5-.42-5.73,2.27-6.82,3.69-1.5,7.46,1.94,6.32,5.74-.83,2.77-4.13,4.22-6.68,2.79l.91-.79Z"/>
  <path class="cls-1" d="M10.36,11c-.49,3.6-4.86,5.28-7.68,2.9C-.43,11.28,1.04,6.32,4.96,5.6c0,1.03.3,2.07.83,2.95,0,.29-1.73,1.1-1.66,2.15.04.56.55,1.08,1.09,1.16.95.15,1.68-1.12,2.43-1.52.85.41,1.75.73,2.7.66Z"/>
  <path class="cls-1" d="M9.69,7.76c-1.34,1.07-2.59,2.26-3.87,3.39-.69.47-1.48-.35-.9-.99l3.95-3.53c-.53-.28-1.8.05-1.97-.68s.34-.88.94-.85c.69.03,2.06.2,2.73.34.73.15.57.93.55,1.53-.01.38-.05.95-.09,1.32-.05.5-.03,1.27-.71,1.29-.98.04-.68-1.21-.62-1.83Z"/>
</svg>